<?xml version="1.0" standalone="no"?>
<!DOCTYPE svg PUBLIC "-//W3C//DTD SVG 20010904//EN"
 "http://www.w3.org/TR/2001/REC-SVG-20010904/DTD/svg10.dtd">
<svg version="1.0" xmlns="http://www.w3.org/2000/svg"
 width="1000.000000pt" height="1000.000000pt" viewBox="0 0 1000.000000 1000.000000"
 preserveAspectRatio="xMidYMid meet">
<metadata>
Created by potrace 1.11, written by Peter Selinger 2001-2013
</metadata>
<g transform="translate(0.000000,1000.000000) scale(0.100000,-0.100000)"
fill="#000000" stroke="none">
<path d="M4739 9666 c-2 -2 -47 -6 -99 -10 -52 -4 -108 -9 -125 -11 -16 -2
-68 -9 -115 -15 -94 -11 -135 -18 -240 -37 -22 -4 -193 -39 -230 -48 -8 -2
-51 -13 -95 -24 -44 -12 -91 -24 -103 -27 -13 -2 -65 -18 -115 -35 -51 -17
-99 -32 -107 -34 -26 -6 -254 -93 -285 -109 -16 -9 -35 -16 -42 -16 -6 0 -24
-7 -40 -15 -15 -8 -98 -48 -183 -90 -153 -74 -270 -135 -280 -145 -3 -3 -16
-11 -30 -18 -22 -11 -107 -63 -150 -92 -8 -5 -49 -31 -90 -58 -41 -27 -83 -56
-92 -65 -9 -9 -20 -17 -25 -17 -4 0 -20 -10 -35 -23 -14 -12 -36 -29 -48 -37
-12 -8 -30 -22 -40 -31 -10 -8 -31 -24 -45 -35 -15 -10 -32 -23 -39 -29 -6 -5
-54 -46 -106 -89 -115 -97 -530 -513 -530 -532 0 -3 -26 -36 -55 -68 -5 -6
-28 -34 -50 -61 -22 -28 -43 -51 -47 -53 -5 -2 -8 -7 -8 -12 0 -4 -29 -48 -65
-97 -93 -126 -100 -137 -112 -163 -4 -8 -10 -17 -13 -20 -4 -3 -39 -59 -78
-125 -40 -66 -75 -124 -80 -130 -11 -14 -192 -379 -192 -388 0 -3 -13 -35 -28
-69 -30 -66 -56 -130 -57 -138 -1 -3 -9 -23 -18 -44 -10 -22 -20 -51 -24 -65
-3 -14 -10 -32 -16 -38 -5 -7 -7 -13 -4 -13 3 0 0 -15 -8 -33 -13 -31 -82
-257 -90 -295 -2 -10 -13 -53 -24 -97 -28 -115 -63 -289 -77 -390 -1 -11 -5
-36 -8 -55 -6 -33 -8 -54 -20 -160 -16 -144 -19 -212 -20 -475 0 -255 5 -383
18 -490 2 -16 7 -59 11 -95 4 -36 9 -74 11 -85 2 -10 6 -37 9 -58 7 -41 31
-179 39 -213 2 -12 7 -38 10 -59 4 -20 8 -41 11 -45 2 -3 6 -20 9 -36 3 -16
15 -65 27 -109 11 -44 22 -87 24 -95 2 -8 4 -16 5 -17 2 -2 3 -6 5 -10 1 -5 5
-15 8 -23 4 -8 9 -26 11 -40 3 -14 5 -26 7 -27 1 -2 2 -7 3 -12 0 -5 4 -13 9
-17 4 -4 7 -14 7 -23 0 -40 138 -386 231 -577 21 -44 39 -85 39 -91 0 -6 4
-13 8 -15 4 -1 20 -28 35 -58 15 -30 32 -62 37 -70 5 -8 32 -55 61 -105 29
-49 57 -92 61 -93 4 -2 6 -7 3 -12 -2 -4 4 -15 15 -25 11 -10 20 -22 20 -27 0
-12 81 -132 92 -136 4 -2 8 -10 8 -18 0 -8 3 -14 8 -14 4 0 18 -18 32 -40 13
-22 28 -40 32 -40 4 0 8 -5 8 -11 0 -10 168 -224 215 -274 11 -12 56 -61 100
-110 73 -79 200 -207 266 -266 120 -107 189 -167 226 -196 15 -12 54 -42 85
-68 31 -25 60 -45 64 -45 4 0 14 -7 23 -16 30 -29 166 -124 179 -124 6 0 12
-4 12 -10 0 -5 7 -10 15 -10 8 0 15 -4 15 -8 0 -4 15 -16 33 -27 17 -10 50
-30 72 -44 22 -14 42 -26 45 -26 3 0 16 -8 30 -16 157 -99 491 -259 680 -328
19 -7 44 -17 55 -22 53 -24 317 -105 455 -141 213 -54 412 -92 591 -112 31 -4
66 -9 78 -11 61 -12 255 -19 491 -20 294 0 417 8 645 41 179 25 170 24 315 55
52 11 103 22 112 24 168 35 444 125 723 235 11 4 22 7 25 7 3 -1 19 6 35 16
45 24 259 124 269 125 5 0 12 4 15 9 7 10 73 46 124 69 20 9 37 20 37 26 0 5
4 7 9 4 5 -3 14 1 21 9 7 8 16 15 21 15 4 0 28 14 52 30 25 17 48 30 52 30 3
0 21 11 39 25 18 14 38 25 44 25 7 0 12 5 12 10 0 6 7 10 15 10 8 0 15 3 15 8
0 4 25 23 55 41 30 19 55 39 55 43 0 4 5 8 11 8 9 0 72 43 89 60 3 3 23 18 45
35 54 39 62 46 90 73 14 13 25 20 25 17 0 -3 8 3 18 13 10 9 44 40 76 67 33
28 92 82 133 121 40 39 73 69 73 67 0 -2 20 18 44 44 25 26 73 78 108 114 64
67 149 165 203 233 17 22 35 44 40 50 6 6 31 38 55 71 25 33 47 62 50 65 33
33 226 334 317 495 65 115 198 399 251 535 67 173 75 193 77 200 0 3 13 41 27
85 34 102 67 214 73 244 2 12 7 31 10 41 3 10 8 27 10 37 3 10 9 38 16 63 6
25 13 56 15 70 3 14 7 36 10 50 12 60 33 182 39 217 3 21 7 48 9 60 3 12 8 53
11 90 4 37 9 77 11 87 24 131 25 819 0 951 -2 11 -7 52 -11 90 -4 39 -9 79
-11 90 -2 10 -6 35 -9 55 -3 20 -7 45 -9 55 -2 11 -7 40 -11 65 -9 56 -10 58
-30 150 -9 41 -18 84 -20 95 -4 16 -31 117 -90 325 -6 20 -64 191 -72 210 -3
8 -7 17 -8 20 -1 3 -7 18 -13 33 -7 16 -12 35 -12 43 0 8 -4 14 -10 14 -5 0
-9 3 -8 8 0 4 -2 16 -7 27 -4 11 -19 47 -32 80 -27 65 -178 373 -220 445 -47
84 -196 321 -208 333 -6 7 -18 23 -25 37 -7 13 -17 29 -22 34 -4 6 -38 52 -75
101 -37 50 -72 95 -77 102 -6 7 -16 18 -21 25 -50 64 -141 168 -147 168 -4 0
-8 4 -8 9 0 5 -16 27 -36 48 -199 209 -306 310 -484 456 -41 34 -76 65 -78 69
-2 5 -9 8 -16 8 -7 0 -25 14 -41 30 -16 17 -35 30 -42 30 -7 0 -13 4 -13 8 0
5 -17 20 -37 33 -21 14 -74 50 -118 80 -87 59 -196 128 -249 158 -18 11 -44
25 -57 33 -13 7 -32 19 -41 27 -10 8 -18 10 -18 6 0 -4 -8 -1 -17 7 -25 21
-379 193 -408 198 -3 0 -42 17 -87 36 -75 32 -389 141 -429 149 -9 2 -47 12
-85 23 -73 21 -152 41 -194 49 -14 2 -45 9 -70 14 -86 20 -72 17 -235 43 -113
18 -150 23 -250 31 -38 4 -83 9 -100 12 -33 5 -620 14 -626 9z"/>
</g>
</svg>
