<?xml version="1.0" encoding="UTF-8" standalone="no"?>
<svg
   xmlns:osb="http://www.openswatchbook.org/uri/2009/osb"
   xmlns:dc="http://purl.org/dc/elements/1.1/"
   xmlns:cc="http://creativecommons.org/ns#"
   xmlns:rdf="http://www.w3.org/1999/02/22-rdf-syntax-ns#"
   xmlns:svg="http://www.w3.org/2000/svg"
   xmlns="http://www.w3.org/2000/svg"
   xmlns:sodipodi="http://sodipodi.sourceforge.net/DTD/sodipodi-0.dtd"
   xmlns:inkscape="http://www.inkscape.org/namespaces/inkscape"
   version="1.1"
   id="svg2"
   viewBox="0 0 30 30"
   height="30"
   width="30"
   inkscape:version="0.91 r13725"
   sodipodi:docname="briefcase.svg">
  <sodipodi:namedview
     pagecolor="#ffffff"
     bordercolor="#666666"
     borderopacity="1"
     objecttolerance="10"
     gridtolerance="10"
     guidetolerance="10"
     inkscape:pageopacity="0"
     inkscape:pageshadow="2"
     inkscape:window-width="686"
     inkscape:window-height="480"
     id="namedview4465"
     showgrid="false"
     inkscape:zoom="7.8666667"
     inkscape:cx="15"
     inkscape:cy="15"
     inkscape:window-x="0"
     inkscape:window-y="0"
     inkscape:window-maximized="0"
     inkscape:current-layer="svg2" />
  <defs
     id="defs4">
    <linearGradient
       osb:paint="solid"
       id="linearGradient4163">
      <stop
         id="stop4165"
         offset="0"
         style="stop-color:#055b81;stop-opacity:1;" />
    </linearGradient>
  </defs>
  <metadata
     id="metadata7">
    <rdf:RDF>
      <cc:Work
         rdf:about="">
        <dc:format>image/svg+xml</dc:format>
        <dc:type
           rdf:resource="http://purl.org/dc/dcmitype/StillImage" />
        <dc:title />
      </cc:Work>
    </rdf:RDF>
  </metadata>
  <g
     transform="translate(0,-1022.3622)"
     id="layer1"
     style="stroke:none">
    <g
       transform="translate(-40.129366,978.4848)"
       id="g4150"
       style="stroke:none">
      <path
         style="fill:#055b81;fill-opacity:1;stroke:none;stroke-opacity:1;stroke-width:0.4;stroke-miterlimit:4;stroke-dasharray:none"
         d="m 63.311494,54.346187 -3.086407,0 c 0.08098,-0.125744 0.129431,-0.274851 0.129431,-0.435438 0,-0.444587 -0.361665,-0.806444 -0.806252,-0.806444 l -1.16655,0 0,-0.92927 c 0,-0.444781 -0.361469,-0.806445 -0.806249,-0.806445 l -4.891807,0 c -0.444975,0 -0.806833,0.361664 -0.806833,0.806445 l 0,0.92927 -1.165578,0 c -0.444781,0 -0.80664,0.361857 -0.80664,0.806444 0,0.160595 0.04827,0.309496 0.129628,0.435438 l -3.08699,0 c -0.586675,0 -1.063767,0.477287 -1.063767,1.063775 l 0,3.36359 c 0,0.297819 0.123395,0.567217 0.321176,0.760312 l 0,5.659709 c 0,0.570526 0.464244,1.034577 1.034576,1.034577 l 5.804921,0 c 0.158649,0.09948 0.345702,0.15806 0.546583,0.15806 l 3.077452,0 c 0.200688,0 0.387747,-0.05858 0.546779,-0.15806 l 5.804726,0 c 0.57033,0 1.034381,-0.464245 1.034381,-1.034577 l 0,-5.659515 c 0.197963,-0.193095 0.321177,-0.462493 0.321177,-0.760312 l 0,-3.36359 c 1.94e-4,-0.586682 -0.477092,-1.063969 -1.063774,-1.063969 z m -12.600232,-0.750775 1.656685,0 0,-1.420377 c 0,-0.174219 0.141508,-0.315532 0.315726,-0.315532 l 4.892003,0 c 0.174022,0 0.315336,0.141311 0.315336,0.315532 l 0,1.420377 1.657463,0 c 0.174024,0 0.315338,0.141312 0.315338,0.315531 0,0.174416 -0.141507,0.315727 -0.315338,0.315727 l -1.972994,0 c -0.17422,0 -0.315533,-0.141508 -0.315533,-0.315727 l 0,-1.420183 -4.260548,0 0,1.420183 c 0,0.174416 -0.141703,0.315727 -0.315727,0.315727 l -1.972411,0 c -0.174416,0 -0.315727,-0.141508 -0.315727,-0.315727 0,-0.174416 0.141115,-0.315531 0.315727,-0.315531 z m 2.779051,0.315337 0,-0.92927 3.278917,0 0,0.92927 c 0,0.160595 0.04847,0.309496 0.129628,0.435438 l -3.538196,0 c 0.08117,-0.125744 0.129627,-0.274655 0.129627,-0.435438 z m -7.115904,1.499407 c 0,-0.315922 0.256747,-0.572862 0.572667,-0.572862 l 16.364223,0 c 0.31592,0 0.572862,0.257135 0.572862,0.572862 l 0,3.36359 c 0,0.315921 -0.256942,0.572668 -0.572862,0.572668 l -1.773477,0 0,-0.139563 0.343172,-0.343562 c 0.403319,-0.403319 0.403319,-1.059491 0,-1.462811 l -0.725275,-0.725275 c -0.195624,-0.195236 -0.455291,-0.302878 -0.731698,-0.302878 -0.276211,0 -0.536072,0.107638 -0.731502,0.303072 l -0.725469,0.725275 c -0.403126,0.403322 -0.403126,1.059688 0,1.462812 l 0.34356,0.343367 0,0.139563 -8.42455,0 0,-0.139563 0.343561,-0.343562 c 0.402735,-0.403127 0.402735,-1.059299 -1.94e-4,-1.462815 l -0.725663,-0.725275 c -0.195236,-0.19543 -0.455097,-0.303072 -0.73131,-0.303072 -0.276405,0 -0.536267,0.107638 -0.731502,0.303072 l -0.725469,0.725275 c -0.195433,0.195432 -0.303269,0.455098 -0.303269,0.731505 0,0.276211 0.107835,0.536071 0.303269,0.731307 l 0.343366,0.343367 0,0.139562 -1.711577,0 c -0.31592,0 -0.572668,-0.256746 -0.572668,-0.572667 l 0,-3.363396 z m 13.427698,6.636474 1.244802,0 0,1.687635 c 0,0.29957 -0.2439,0.543275 -0.543663,0.543275 l -0.157668,0 c -0.299764,0 -0.543469,-0.243705 -0.543469,-0.543275 l 0,-1.687635 z m -0.631256,-0.490913 0,-0.534905 2.506926,0 0,0.534905 -2.506926,0 z m 0.631256,-1.026013 0,-0.692378 1.244802,0 0,0.692378 -1.244802,0 z m 0,-1.18329 0,-0.241174 c 0,-0.06521 -0.02608,-0.127686 -0.07203,-0.17363 l -0.415388,-0.415194 c -0.211976,-0.211975 -0.211976,-0.556705 0,-0.768682 l 0.725469,-0.725273 c 0.102587,-0.102587 0.239034,-0.159222 0.384243,-0.159222 0.145204,0 0.281859,0.05664 0.384634,0.159222 l 0.725275,0.725079 c 0.211781,0.211976 0.211781,0.556901 0,0.768876 l -0.415195,0.415194 c -0.04614,0.04614 -0.07202,0.108425 -0.07202,0.17363 l 0,0.241174 -1.244997,0 z m -10.652151,2.700216 1.24519,0 0,1.687635 c 0,0.29957 -0.244093,0.543275 -0.543857,0.543275 l -0.157863,0 c -0.299767,0 -0.543664,-0.243705 -0.543664,-0.543275 l 0,-1.687635 z m -0.631063,-0.490913 0,-0.534905 2.507317,0 0,0.534905 -2.507317,0 z m 0.631063,-1.026013 0,-0.692378 1.24519,0 0,0.692378 -1.24519,0 z m 0,-1.18329 0,-0.241174 c 0,-0.06501 -0.02589,-0.127489 -0.07183,-0.17363 l -0.415193,-0.415194 c -0.102586,-0.102587 -0.159221,-0.239227 -0.159221,-0.384243 0,-0.145204 0.05664,-0.281662 0.159221,-0.384439 l 0.72547,-0.725273 c 0.102586,-0.102587 0.239227,-0.159222 0.384437,-0.159222 0.145008,0 0.281467,0.05664 0.384244,0.159222 l 0.725664,0.725079 c 0.211782,0.211976 0.211782,0.556901 0,0.768876 L 50.46736,58.93161 c -0.04595,0.04595 -0.07183,0.108425 -0.07183,0.17363 l 0,0.241174 -1.24558,0 z m 8.168583,3.802728 c 0,0.160595 -0.223071,0.339473 -0.543664,0.339473 -0.03659,0 -0.07261,0.0083 -0.105513,0.02394 l -1.551184,0.738706 -1.551573,-0.738706 c -0.03289,-0.01572 -0.06891,-0.02394 -0.105499,-0.02394 -0.320397,0 -0.543469,-0.178887 -0.543469,-0.339473 l 0,-0.526342 c 0,-0.160595 0.223072,-0.339473 0.543469,-0.339473 l 3.313567,0 c 0.320396,0 0.543664,0.178885 0.543664,0.339473 l 0,0.526342 z m -0.650334,2.746154 -3.077451,0 c -0.299766,0 -0.543469,-0.243901 -0.543469,-0.54386 l 0,-1.440427 c 0.109776,0.03737 0.228909,0.06228 0.355823,0.06774 l 1.60958,0.766347 c 0.03348,0.01589 0.0695,0.02394 0.105486,0.02394 0.03621,0 0.07221,-0.008 0.105683,-0.02394 l 1.609191,-0.766347 c 0.135276,-0.0058 0.26317,-0.03192 0.378599,-0.07415 l 0,1.447045 c 0,0.299765 -0.243705,0.543664 -0.54347,0.543664 z m 6.894779,-0.701528 c 0,0.299764 -0.243705,0.543664 -0.543274,0.543664 l -5.392064,0 c 0.04809,-0.119328 0.07534,-0.24935 0.07534,-0.385996 l 0,-1.836544 c 0.06618,-0.11017 0.106667,-0.232998 0.106667,-0.36575 l 0,-0.526342 c 0,-0.465803 -0.454514,-0.83058 -1.034577,-0.83058 l -3.31376,0 c -0.580064,0 -1.034381,0.364777 -1.034381,0.83058 l 0,0.526342 c 0,0.147346 0.04906,0.282829 0.129627,0.401567 l 0,1.800533 c 0,0.136651 0.02725,0.266673 0.07553,0.385995 l -5.392646,0 c -0.299766,0 -0.543664,-0.243899 -0.543664,-0.543664 l 0,-5.387391 c 0.08078,0.01965 0.164667,0.03115 0.251491,0.03115 l 1.711967,0 0,0.692379 -0.385801,0 c -0.135472,0 -0.245457,0.109776 -0.245457,0.245652 l 0,1.02601 c 0,0.135473 0.109776,0.245458 0.245457,0.245458 l 0.385801,0 0,1.687634 c 0,0.570332 0.46405,1.034383 1.034381,1.034383 l 0.157865,0 c 0.570523,0 1.034771,-0.464245 1.034771,-1.034383 l 0,-1.687634 0.385216,0 c 0.135473,0 0.245652,-0.109777 0.245652,-0.245458 l 0,-1.02601 c 0,-0.13567 -0.109973,-0.245652 -0.245652,-0.245652 l -0.385216,0 0,-0.692379 8.42455,0 0,0.692379 -0.385607,0 c -0.135472,0 -0.245456,0.109776 -0.245456,0.245652 l 0,1.02601 c 0,0.135473 0.109777,0.245458 0.245456,0.245458 l 0.385607,0 0,1.687634 c 0,0.570332 0.464246,1.034383 1.034576,1.034383 l 0.157667,0 c 0.570525,0 1.034772,-0.464245 1.034772,-1.034383 l 0,-1.687634 0.385217,0 c 0.135668,0 0.245651,-0.109777 0.245651,-0.245458 l 0,-1.02601 c 0,-0.13567 -0.109777,-0.245652 -0.245651,-0.245652 l -0.385217,0 0,-0.692379 1.773476,0 c 0.08682,0 0.170703,-0.01155 0.251492,-0.03115 l 0,5.387586 z"
         id="path4138" />
    </g>
  </g>
</svg>
