<?xml version="1.0" encoding="UTF-8" standalone="no"?>
<svg
   xmlns:osb="http://www.openswatchbook.org/uri/2009/osb"
   xmlns:dc="http://purl.org/dc/elements/1.1/"
   xmlns:cc="http://creativecommons.org/ns#"
   xmlns:rdf="http://www.w3.org/1999/02/22-rdf-syntax-ns#"
   xmlns:svg="http://www.w3.org/2000/svg"
   xmlns="http://www.w3.org/2000/svg"
   version="1.1"
   id="svg2"
   viewBox="0 0 30 30"
   height="30"
   width="30">
  <defs
     id="defs4">
    <linearGradient
       osb:paint="solid"
       id="linearGradient4163">
      <stop
         id="stop4165"
         offset="0"
         style="stop-color:#055b81;stop-opacity:1;" />
    </linearGradient>
  </defs>
  <metadata
     id="metadata7">
    <rdf:RDF>
      <cc:Work
         rdf:about="">
        <dc:format>image/svg+xml</dc:format>
        <dc:type
           rdf:resource="http://purl.org/dc/dcmitype/StillImage" />
        <dc:title></dc:title>
      </cc:Work>
    </rdf:RDF>
  </metadata>
  <g
     transform="translate(0,-1022.3622)"
     id="layer1">
    <g
       transform="translate(-40.129366,978.4848)"
       id="g4150">
      <g
         transform="translate(-50.799206,9.8512771)"
         id="g4357">
        <g
           transform="translate(-5.0557031,-43.251349)"
           id="g4451">
          <g
             style="fill:#055b81;fill-opacity:1"
             transform="matrix(0.22213203,0,0,0.22213203,99.881808,-130.37987)"
             id="g4437">
            <path
               style="color:#000000;text-indent:0;text-transform:none;direction:ltr;block-progression:tb;baseline-shift:baseline;display:inline;overflow:visible;visibility:visible;fill:#055b81;fill-opacity:1;stroke:none;marker:none;enable-background:accumulate"
               d="m 48.888253,958.37522 c -13.278462,0.57223 -23.892773,11.55367 -23.892773,24.97392 0,7.26022 3.099269,13.80292 8.057954,18.37876 l -15.834818,30.6939 a 1.9990726,2.0006142 0 0 0 2.685985,2.7193 l 11.39982,-5.7199 1.686549,15.1594 a 1.9990726,2.0006142 0 0 0 3.841583,0.5313 l 13.148833,-32.4442 13.148833,32.4442 a 1.9990726,2.0006142 0 0 0 3.841583,-0.5313 l 1.686549,-15.1594 11.39982,5.7199 a 1.9990726,2.0006142 0 0 0 2.685985,-2.7193 l -15.834818,-30.6939 c 4.958685,-4.57584 8.057954,-11.11854 8.057954,-18.37876 0,-11.1521 -7.267694,-20.70444 -17.396437,-23.9112 a 1.9993923,2.0009342 0 0 0 -1.186831,3.81329 c 8.476939,2.68381 14.585523,10.68174 14.585523,20.09791 0,11.62408 -9.373045,21.00436 -20.988161,21.00436 -11.615117,0 -20.988161,-9.38028 -20.988161,-21.00436 0,-11.31544 8.903583,-20.5226 20.082422,-21.00435 a 1.9990725,2.0006141 0 0 0 0.218627,-3.96957 1.9990725,2.0006141 0 0 0 -0.406021,0 z m 1.093133,9.97081 c -8.255925,0 -14.991544,6.74082 -14.991544,15.00311 0,8.26229 6.735619,15.0031 14.991544,15.0031 8.255925,0 14.991544,-6.74081 14.991544,-15.0031 0,-8.26229 -6.735619,-15.00311 -14.991544,-15.00311 z m 0,4.00083 c 6.095384,0 10.993799,4.9022 10.993799,11.00228 0,6.10008 -4.898415,11.00228 -10.993799,11.00228 -6.095384,0 -10.993799,-4.9022 -10.993799,-11.00228 0,-6.10008 4.898415,-11.00228 10.993799,-11.00228 z M 36.27037,1004.2285 c 3.286959,2.1687 7.097991,3.5911 11.212425,4.0008 l -11.368587,28.0683 -1.124366,-10.1584 a 1.9990726,2.0006142 0 0 0 -2.904612,-1.594 l -8.495208,4.2508 12.680348,-24.5675 z m 27.422032,0 12.680348,24.5675 -8.495209,-4.2508 a 1.9990726,2.0006142 0 0 0 -2.904611,1.594 l -1.124366,10.1584 -11.368587,-28.0683 c 4.114446,-0.4097 7.925457,-1.8321 11.212425,-4.0008 z"
               visibility="visible"
               display="inline"
               overflow="visible"
               id="path4439" />
          </g>
        </g>
      </g>
    </g>
  </g>
</svg>
