<?xml version="1.0" encoding="UTF-8" standalone="no"?>
<svg
   xmlns:osb="http://www.openswatchbook.org/uri/2009/osb"
   xmlns:dc="http://purl.org/dc/elements/1.1/"
   xmlns:cc="http://creativecommons.org/ns#"
   xmlns:rdf="http://www.w3.org/1999/02/22-rdf-syntax-ns#"
   xmlns:svg="http://www.w3.org/2000/svg"
   xmlns="http://www.w3.org/2000/svg"
   version="1.1"
   id="svg2"
   viewBox="0 0 30 30"
   height="30"
   width="30">
  <defs
     id="defs4">
    <linearGradient
       osb:paint="solid"
       id="linearGradient4163">
      <stop
         id="stop4165"
         offset="0"
         style="stop-color:#055b81;stop-opacity:1;" />
    </linearGradient>
  </defs>
  <metadata
     id="metadata7">
    <rdf:RDF>
      <cc:Work
         rdf:about="">
        <dc:format>image/svg+xml</dc:format>
        <dc:type
           rdf:resource="http://purl.org/dc/dcmitype/StillImage" />
        <dc:title></dc:title>
      </cc:Work>
    </rdf:RDF>
  </metadata>
  <g
     transform="translate(0,-1022.3622)"
     id="layer1">
    <g
       transform="translate(-40.129366,978.4848)"
       id="g4150">
      <g
         transform="translate(-50.799206,9.8512771)"
         id="g4357">
        <g
           transform="matrix(0.33646896,0,0,0.33646896,95.161565,38.259116)"
           style="fill:#055b81;fill-opacity:1"
           id="g4199">
          <g
             style="fill:#055b81;fill-opacity:1"
             id="g4201">
            <g
               style="fill:#055b81;fill-opacity:1"
               id="g4203">
              <g
                 style="fill:#055b81;fill-opacity:1"
                 id="g4205">
                <g
                   style="fill:#055b81;fill-opacity:1"
                   id="g4207">
                  <path
                     style="fill:#055b81;fill-opacity:1"
                     d="m 17,63.5 c -0.553,0 -1,-0.447 -1,-1 0,-3.859 3.141,-7 7,-7 0.553,0 1,0.447 1,1 0,0.553 -0.447,1 -1,1 -2.757,0 -5,2.243 -5,5 0,0.553 -0.447,1 -1,1 z"
                     id="path4209" />
                </g>
                <g
                   style="fill:#055b81;fill-opacity:1"
                   id="g4211">
                  <path
                     style="fill:#055b81;fill-opacity:1"
                     d="m 27,57.502 c 0,0 0,0 0,0 L 22.999,57.5 C 22.447,57.5 22,57.052 22,56.5 c 0,-0.553 0.448,-1 1,-1 0,0 0,0 0.001,0 l 4,0.002 c 0.552,0 0.999,0.448 0.999,1 0,0.553 -0.448,1 -1,1 z"
                     id="path4213" />
                </g>
                <g
                   style="fill:#055b81;fill-opacity:1"
                   id="g4215">
                  <path
                     style="fill:#055b81;fill-opacity:1"
                     d="m 47,63.5 c -0.553,0 -1,-0.447 -1,-1 0,-2.757 -2.243,-5 -5,-5 -0.553,0 -1,-0.447 -1,-1 0,-0.553 0.447,-1 1,-1 3.859,0 7,3.141 7,7 0,0.553 -0.447,1 -1,1 z"
                     id="path4217" />
                </g>
                <g
                   style="fill:#055b81;fill-opacity:1"
                   id="g4219">
                  <path
                     style="fill:#055b81;fill-opacity:1"
                     d="m 37,57.502 c -0.552,0 -1,-0.447 -1,-1 0,-0.552 0.447,-1 0.999,-1 l 4,-0.002 c 10e-4,0 10e-4,0 10e-4,0 0.552,0 1,0.447 1,1 0,0.552 -0.447,1 -0.999,1 L 37,57.502 c 0,0 0,0 0,0 z"
                     id="path4221" />
                </g>
                <g
                   style="fill:#055b81;fill-opacity:1"
                   id="g4223">
                  <path
                     style="fill:#055b81;fill-opacity:1"
                     d="m 27,57.502 c -0.553,0 -1,-0.447 -1,-1 l 0,-3.201 c 0,-0.553 0.447,-1 1,-1 0.553,0 1,0.447 1,1 l 0,3.201 c 0,0.553 -0.447,1 -1,1 z"
                     id="path4225" />
                </g>
                <g
                   style="fill:#055b81;fill-opacity:1"
                   id="g4227">
                  <path
                     style="fill:#055b81;fill-opacity:1"
                     d="m 37,57.5 c -0.553,0 -1,-0.447 -1,-1 l 0,-3.199 c 0,-0.553 0.447,-1 1,-1 0.553,0 1,0.447 1,1 l 0,3.199 c 0,0.553 -0.447,1 -1,1 z"
                     id="path4229" />
                </g>
                <g
                   style="fill:#055b81;fill-opacity:1"
                   id="g4231">
                  <path
                     style="fill:#055b81;fill-opacity:1"
                     d="m 32,55.5 c -6.617,0 -12,-5.383 -12,-12 0,-0.553 0.447,-1 1,-1 0.553,0 1,0.447 1,1 0,5.514 4.486,10 10,10 5.514,0 10,-4.486 10,-10 0,-0.553 0.447,-1 1,-1 0.553,0 1,0.447 1,1 0,6.617 -5.383,12 -12,12 z"
                     id="path4233" />
                </g>
                <g
                   style="fill:#055b81;fill-opacity:1"
                   id="g4235">
                  <path
                     style="fill:#055b81;fill-opacity:1"
                     d="m 43,38.5 c -0.553,0 -1,-0.447 -1,-1 0,-5.514 -4.486,-10 -10,-10 -5.514,0 -10,4.486 -10,10 0,0.553 -0.447,1 -1,1 -0.553,0 -1,-0.447 -1,-1 0,-6.617 5.383,-12 12,-12 6.617,0 12,5.383 12,12 0,0.553 -0.447,1 -1,1 z"
                     id="path4237" />
                </g>
                <g
                   style="fill:#055b81;fill-opacity:1"
                   id="g4239">
                  <path
                     style="fill:#055b81;fill-opacity:1"
                     d="m 21,44.502 c -0.553,0 -1,-0.447 -1,-1 L 20,37.5 c 0,-0.553 0.447,-1 1,-1 0.553,0 1,0.447 1,1 l 0,6.002 c 0,0.553 -0.447,1 -1,1 z"
                     id="path4241" />
                </g>
                <g
                   style="fill:#055b81;fill-opacity:1"
                   id="g4243">
                  <path
                     style="fill:#055b81;fill-opacity:1"
                     d="m 43,44.502 c -0.553,0 -1,-0.447 -1,-1 L 42,37.5 c 0,-0.553 0.447,-1 1,-1 0.553,0 1,0.447 1,1 l 0,6.002 c 0,0.553 -0.447,1 -1,1 z"
                     id="path4245" />
                </g>
                <g
                   style="fill:#055b81;fill-opacity:1"
                   id="g4247">
                  <g
                     style="fill:#055b81;fill-opacity:1"
                     id="g4249">
                    <path
                       style="fill:#055b81;fill-opacity:1"
                       d="m 43,40.5 c -0.256,0 -0.512,-0.098 -0.707,-0.293 l -3,-3 c -0.391,-0.391 -0.391,-1.023 0,-1.414 0.391,-0.391 1.023,-0.391 1.414,0 l 3,3 c 0.391,0.391 0.391,1.023 0,1.414 C 43.512,40.402 43.256,40.5 43,40.5 Z"
                       id="path4251" />
                  </g>
                  <g
                     style="fill:#055b81;fill-opacity:1"
                     id="g4253">
                    <path
                       style="fill:#055b81;fill-opacity:1"
                       d="m 32,39.5 c -4.485,0 -8.313,-2.033 -8.474,-2.119 -0.486,-0.262 -0.668,-0.867 -0.407,-1.354 0.261,-0.487 0.865,-0.671 1.354,-0.408 0.035,0.019 3.559,1.881 7.527,1.881 3.987,0 7.491,-1.861 7.526,-1.881 0.484,-0.261 1.093,-0.079 1.354,0.407 0.261,0.486 0.079,1.093 -0.407,1.354 -0.16,0.087 -3.988,2.12 -8.473,2.12 z"
                       id="path4255" />
                  </g>
                  <g
                     style="fill:#055b81;fill-opacity:1"
                     id="g4257">
                    <path
                       style="fill:#055b81;fill-opacity:1"
                       d="m 21,40.5 c -0.256,0 -0.512,-0.098 -0.707,-0.293 -0.391,-0.391 -0.391,-1.023 0,-1.414 l 3,-3 c 0.391,-0.391 1.023,-0.391 1.414,0 0.391,0.391 0.391,1.023 0,1.414 l -3,3 C 21.512,40.402 21.256,40.5 21,40.5 Z"
                       id="path4259" />
                  </g>
                </g>
                <g
                   style="fill:#055b81;fill-opacity:1"
                   id="g4261">
                  <path
                     style="fill:#055b81;fill-opacity:1"
                     d="m 29,59.5 c -0.256,0 -0.512,-0.098 -0.707,-0.293 l -2,-1.998 c -0.391,-0.39 -0.391,-1.023 0,-1.414 0.391,-0.391 1.023,-0.391 1.414,0 l 2,1.998 c 0.391,0.39 0.391,1.023 0,1.414 C 29.512,59.402 29.256,59.5 29,59.5 Z"
                     id="path4263" />
                </g>
                <g
                   style="fill:#055b81;fill-opacity:1"
                   id="g4265">
                  <path
                     style="fill:#055b81;fill-opacity:1"
                     d="m 29,59.5 c -0.419,0 -0.809,-0.265 -0.948,-0.684 -0.175,-0.524 0.108,-1.091 0.632,-1.265 l 3,-1 c 0.527,-0.176 1.09,0.108 1.265,0.632 0.175,0.524 -0.108,1.091 -0.632,1.265 l -3,1 C 29.211,59.483 29.104,59.5 29,59.5 Z"
                     id="path4267" />
                </g>
                <g
                   style="fill:#055b81;fill-opacity:1"
                   id="g4269">
                  <path
                     style="fill:#055b81;fill-opacity:1"
                     d="m 35,59.5 c -0.256,0 -0.512,-0.098 -0.707,-0.293 -0.391,-0.391 -0.391,-1.024 0,-1.414 l 2,-1.998 c 0.391,-0.391 1.023,-0.391 1.414,0 0.391,0.391 0.391,1.024 0,1.414 l -2,1.998 C 35.512,59.402 35.256,59.5 35,59.5 Z"
                     id="path4271" />
                </g>
                <g
                   style="fill:#055b81;fill-opacity:1"
                   id="g4273">
                  <path
                     style="fill:#055b81;fill-opacity:1"
                     d="m 35,59.5 c -0.104,0 -0.211,-0.017 -0.316,-0.052 l -3,-1 c -0.523,-0.174 -0.807,-0.74 -0.632,-1.265 0.175,-0.523 0.736,-0.808 1.265,-0.632 l 3,1 c 0.523,0.174 0.807,0.74 0.632,1.265 C 35.809,59.235 35.419,59.5 35,59.5 Z"
                     id="path4275" />
                </g>
              </g>
            </g>
            <g
               style="fill:#055b81;fill-opacity:1"
               id="g4277">
              <path
                 style="fill:#055b81;fill-opacity:1"
                 d="m 32,22.5 c -6.065,0 -11,-4.935 -11,-11 0,-6.065 4.935,-11 11,-11 6.065,0 11,4.935 11,11 0,6.065 -4.935,11 -11,11 z m 0,-20 c -4.963,0 -9,4.037 -9,9 0,4.963 4.037,9 9,9 4.963,0 9,-4.037 9,-9 0,-4.963 -4.037,-9 -9,-9 z"
                 id="path4279" />
            </g>
            <g
               style="fill:#055b81;fill-opacity:1"
               id="g4281">
              <path
                 style="fill:#055b81;fill-opacity:1"
                 d="M 10.999,34.5 C 4.935,34.5 0,29.565 0,23.5 c 0,-6.065 4.935,-11 10.999,-11 2.939,0 5.701,1.145 7.779,3.222 2.077,2.077 3.222,4.84 3.221,7.778 0.001,2.938 -1.144,5.701 -3.221,7.778 -2.078,2.077 -4.84,3.222 -7.779,3.222 z m 0,-20 C 6.037,14.5 2,18.537 2,23.5 c 0,4.963 4.037,9 8.999,9 2.404,0 4.665,-0.937 6.365,-2.636 1.699,-1.7 2.635,-3.96 2.635,-6.364 0,-2.404 -0.936,-4.664 -2.635,-6.364 -1.7,-1.699 -3.961,-2.636 -6.365,-2.636 z"
                 id="path4283" />
            </g>
            <g
               style="fill:#055b81;fill-opacity:1"
               id="g4285">
              <path
                 style="fill:#055b81;fill-opacity:1"
                 d="m 52.999,34.504 0,0 c -6.065,0 -11,-4.936 -11,-11.002 10e-4,-6.066 4.936,-11.002 11,-11.002 6.065,0.004 11,4.939 11.001,11.002 -10e-4,6.064 -4.936,11 -11.001,11.002 z M 52.998,14.5 c -4.961,0 -8.998,4.038 -8.999,9.002 0,4.964 4.037,9.002 9,9.002 4.962,-0.002 9,-4.04 9.001,-9.002 -10e-4,-4.96 -4.039,-8.998 -9.002,-9.002 z"
                 id="path4287" />
            </g>
            <g
               style="fill:#055b81;fill-opacity:1"
               id="g4289">
              <path
                 style="fill:#055b81;fill-opacity:1"
                 d="m 16,29.5 -10,0 c -0.553,0 -1,-0.447 -1,-1 l 0,-7 c 0,-0.553 0.447,-1 1,-1 l 10,0 c 0.553,0 1,0.447 1,1 l 0,7 c 0,0.553 -0.447,1 -1,1 z m -9,-2 8,0 0,-5 -8,0 0,5 z"
                 id="path4291" />
            </g>
            <g
               style="fill:#055b81;fill-opacity:1"
               id="g4293">
              <path
                 style="fill:#055b81;fill-opacity:1"
                 d="m 16,22.5 -10,0 c -0.553,0 -1,-0.447 -1,-1 l 0,-3 c 0,-0.553 0.447,-1 1,-1 l 10,0 c 0.553,0 1,0.447 1,1 l 0,3 c 0,0.553 -0.447,1 -1,1 z m -9,-2 8,0 0,-1 -8,0 0,1 z"
                 id="path4295" />
            </g>
            <g
               style="fill:#055b81;fill-opacity:1"
               id="g4297">
              <path
                 style="fill:#055b81;fill-opacity:1"
                 d="m 29,17.5 c -1.654,0 -3,-1.346 -3,-3 0,-1.654 1.346,-3 3,-3 0.553,0 1,0.447 1,1 0,0.553 -0.447,1 -1,1 -0.552,0 -1,0.448 -1,1 0,0.552 0.448,1 1,1 0.553,0 1,0.447 1,1 0,0.553 -0.447,1 -1,1 z"
                 id="path4299" />
            </g>
            <g
               style="fill:#055b81;fill-opacity:1"
               id="g4301">
              <path
                 style="fill:#055b81;fill-opacity:1"
                 d="m 36,17.5 -7,0 c -0.553,0 -1,-0.447 -1,-1 0,-0.553 0.447,-1 1,-1 l 7,0 c 0.553,0 1,0.447 1,1 0,0.553 -0.447,1 -1,1 z"
                 id="path4303" />
            </g>
            <g
               style="fill:#055b81;fill-opacity:1"
               id="g4305">
              <path
                 style="fill:#055b81;fill-opacity:1"
                 d="m 36,13.5 -7,0 c -0.553,0 -1,-0.447 -1,-1 0,-0.553 0.447,-1 1,-1 l 7,0 c 0.553,0 1,0.447 1,1 0,0.553 -0.447,1 -1,1 z"
                 id="path4307" />
            </g>
            <g
               style="fill:#055b81;fill-opacity:1"
               id="g4309">
              <path
                 style="fill:#055b81;fill-opacity:1"
                 d="m 35,17.5 c -0.553,0 -1,-0.447 -1,-1 l 0,-4 c 0,-0.553 0.447,-1 1,-1 0.553,0 1,0.447 1,1 l 0,4 c 0,0.553 -0.447,1 -1,1 z"
                 id="path4311" />
            </g>
            <g
               style="fill:#055b81;fill-opacity:1"
               id="g4313">
              <path
                 style="fill:#055b81;fill-opacity:1"
                 d="m 27,9.5 c -0.553,0 -1,-0.447 -1,-1 0,-1.654 1.346,-3 3,-3 0.553,0 1,0.447 1,1 0,0.553 -0.447,1 -1,1 -0.552,0 -1,0.448 -1,1 0,0.553 -0.447,1 -1,1 z"
                 id="path4315" />
            </g>
            <g
               style="fill:#055b81;fill-opacity:1"
               id="g4317">
              <path
                 style="fill:#055b81;fill-opacity:1"
                 d="m 36,7.5 -7,0 c -0.553,0 -1,-0.447 -1,-1 0,-0.553 0.447,-1 1,-1 l 7,0 c 0.553,0 1,0.447 1,1 0,0.553 -0.447,1 -1,1 z"
                 id="path4319" />
            </g>
            <g
               style="fill:#055b81;fill-opacity:1"
               id="g4321">
              <path
                 style="fill:#055b81;fill-opacity:1"
                 d="m 36,13.5 c -0.553,0 -1,-0.447 -1,-1 l 0,-6 c 0,-0.553 0.447,-1 1,-1 0.553,0 1,0.447 1,1 l 0,6 c 0,0.553 -0.447,1 -1,1 z"
                 id="path4323" />
            </g>
            <g
               style="fill:#055b81;fill-opacity:1"
               id="g4325">
              <path
                 style="fill:#055b81;fill-opacity:1"
                 d="m 27,15.5 c -0.553,0 -1,-0.447 -1,-1 l 0,-6 c 0,-0.553 0.447,-1 1,-1 0.553,0 1,0.447 1,1 l 0,6 c 0,0.553 -0.447,1 -1,1 z"
                 id="path4327" />
            </g>
            <g
               style="fill:#055b81;fill-opacity:1"
               id="g4329">
              <g
                 style="fill:#055b81;fill-opacity:1"
                 id="g4331">
                <path
                   style="fill:#055b81;fill-opacity:1"
                   d="m 57,28.5 -8,0 c -1.103,0 -2,-0.897 -2,-2 l 0,-5 c 0,-1.103 0.897,-2 2,-2 l 8,0 c 1.103,0 2,0.897 2,2 l 0,5 c 0,1.103 -0.897,2 -2,2 z m 0,-2 0,1 0,-1 0,0 0,0 z m -8,-5 0,5 7.997,0 0.003,-5 -8,0 z"
                   id="path4333" />
              </g>
              <g
                 style="fill:#055b81;fill-opacity:1"
                 id="g4335">
                <path
                   style="fill:#055b81;fill-opacity:1"
                   d="m 51,21.5 c -0.553,0 -1,-0.447 -1,-1 l 0,-3 c 0,-0.553 0.447,-1 1,-1 0.553,0 1,0.447 1,1 l 0,3 c 0,0.553 -0.447,1 -1,1 z"
                   id="path4337" />
              </g>
              <g
                 style="fill:#055b81;fill-opacity:1"
                 id="g4339">
                <path
                   style="fill:#055b81;fill-opacity:1"
                   d="m 55,18.5 -4,0 c -0.553,0 -1,-0.447 -1,-1 0,-0.553 0.447,-1 1,-1 l 4,0 c 0.553,0 1,0.447 1,1 0,0.553 -0.447,1 -1,1 z"
                   id="path4341" />
              </g>
              <g
                 style="fill:#055b81;fill-opacity:1"
                 id="g4343">
                <path
                   style="fill:#055b81;fill-opacity:1"
                   d="m 55,21.5 c -0.553,0 -1,-0.447 -1,-1 l 0,-3 c 0,-0.553 0.447,-1 1,-1 0.553,0 1,0.447 1,1 l 0,3 c 0,0.553 -0.447,1 -1,1 z"
                   id="path4345" />
              </g>
            </g>
          </g>
        </g>
      </g>
    </g>
  </g>
</svg>
